<svg width="66" height="14" viewBox="0 0 66 14" fill="none" xmlns="http://www.w3.org/2000/svg">
<path d="M1.64788 0.0483409L-0.180461 0.0483408L-0.180462 10.5433C0.502874 10.4818 1.10366 10.3266 1.64788 10.1033L1.64788 0.0483409Z" fill="white"/>
<path d="M3.78806 0.0466906L1.95972 0.0466905V0.043457L1.95972 9.97494C2.63541 9.65806 3.22702 9.23933 3.78806 8.76725L3.78806 0.0466906Z" fill="white"/>
<path d="M5.93278 6.83335L5.93279 0.0434572L4.10444 0.043457L4.10444 8.49578C4.39642 8.23965 4.68382 7.97385 4.97275 7.70484C5.28614 7.41327 5.60258 7.12008 5.93126 6.83335H5.93278Z" fill="white"/>
<path d="M-0.00693124 11.0282C0.354268 11.441 0.836383 11.7348 1.36966 11.8071C1.56808 11.8344 1.77116 11.8344 1.97269 11.8039C4.93514 11.3639 6.64037 7.58199 10.0338 6.62648V4.99489C9.97952 5.00613 9.92837 5.01898 9.88031 5.03022C5.44671 6.13347 4.41272 10.4373 -0.191406 10.8163L-0.00693124 11.0282Z" fill="white"/>
<path d="M3.41027 13.4709C4.24161 13.9381 5.2159 14.0884 6.12804 13.833C6.13426 13.8314 6.14047 13.8298 6.14669 13.8281C7.29968 13.4967 8.06265 12.3845 9.00586 11.6506C9.32907 11.3774 9.66161 11.122 10.0159 10.8941C10.0299 10.886 10.0423 10.8779 10.0563 10.8698V9.09642C8.99032 9.56846 8.10149 10.4333 7.24529 11.2141L7.22354 11.2351C5.94313 12.391 4.98593 13.5614 3.14922 13.3254L3.41183 13.4725L3.41027 13.4709Z" fill="white"/>
<path d="M5.24748 12.5889C6.90262 11.3826 8.18442 9.67196 10.0667 8.80774V6.93498C10.0449 6.94146 10.0231 6.94795 10.0029 6.95443C8.37421 7.50897 7.19507 8.54993 5.99416 9.66872L5.97239 9.68818C4.83525 10.7324 3.50212 12.002 1.9232 12.2209C1.79098 12.2419 1.57942 12.2517 1.39897 12.2744C2.02276 12.7576 2.77255 13.051 3.54879 13.0624C4.1508 13.0721 4.73725 12.9489 5.24593 12.5889H5.24748Z" fill="white"/>
<path d="M17.807 0.0525367V11.7442H24V12.6606H15.9418V0.0525367H17.807Z" fill="white"/>
<path d="M53.5143 12.6591L53.5142 0.0510234H55.3425L55.3426 12.6591H53.5143Z" fill="white"/>
<path d="M29.1424 3.30181C26.4041 3.30181 24.1652 5.18495 24.1652 8.12668C24.1652 11.0684 26.4034 12.9515 29.1424 12.9515C31.8814 12.9515 34.1196 11.0508 34.1196 8.12668C34.1196 5.20252 31.8814 3.30181 29.1424 3.30181ZM29.1424 12.0363C27.0494 12.0363 26.0916 10.537 26.0916 8.12527C26.0916 5.71354 27.05 4.19663 29.1424 4.19663C31.2348 4.19663 32.1939 5.7023 32.1939 8.12527C32.1939 10.5483 31.2355 12.0363 29.1424 12.0363Z" fill="white"/>
<path d="M39.2505 7.80657L42.2312 3.64271H40.704L38.4764 6.77303L36.2346 3.64271H33.9124L37.2552 8.31098L34.1508 12.6585H35.6625L38.0279 9.36149L40.3933 12.6585H42.7155L39.2505 7.80728V7.80657Z" fill="white"/>
<path d="M50.5479 3.58465V3.95396C50.0813 3.68524 49.1998 3.32719 47.7479 3.32719C44.5507 3.32719 42.6356 5.04569 42.6356 8.16121C42.6356 10.9897 44.1527 12.9769 46.6763 12.9769C48.9751 12.9769 49.9896 11.5694 50.5479 10.5339V12.6372H52.1159V3.58465H50.5479ZM50.2287 9.18119C49.7771 11.0312 48.133 12.0702 46.7286 12.0702C44.8237 12.0702 44.4237 9.94442 44.4237 8.16121C44.4237 6.378 45.0213 4.23392 47.8688 4.23392C49.0749 4.23392 50.1893 4.68061 50.5479 5.00419C50.5418 6.29218 50.59 7.70046 50.2287 9.18119Z" fill="white"/>
<path d="M64.3275 3.58465V3.95396C63.861 3.68524 62.9795 3.32719 61.5275 3.32719C58.3303 3.32719 56.4152 5.04569 56.4152 8.16121C56.4152 10.9897 57.9324 12.9769 60.4559 12.9769C62.7547 12.9769 63.7693 11.5694 64.3275 10.5339V12.6372H65.8956V3.58465H64.3275ZM64.0076 9.18119C63.556 11.0312 61.9119 12.0702 60.5075 12.0702C58.6026 12.0702 58.2027 9.94442 58.2027 8.16121C58.2027 6.378 58.8003 4.23392 61.6478 4.23392C62.8538 4.23392 63.9683 4.68061 64.3268 5.00419C64.3207 6.29218 64.3689 7.70046 64.0076 9.18119Z" fill="white"/>
</svg>
