<svg width="17" height="16" viewBox="0 0 17 16" fill="none" xmlns="http://www.w3.org/2000/svg">
<path d="M11.9247 11.52C11.2714 12.1533 10.5581 12.0533 9.87139 11.7533C9.14472 11.4467 8.47805 11.4333 7.71139 11.7533C6.75139 12.1667 6.24472 12.0467 5.67139 11.52C2.41805 8.16667 2.89805 3.06 6.59139 2.87333C7.49139 2.92 8.11805 3.36667 8.64472 3.40667C9.43139 3.24667 10.1847 2.78667 11.0247 2.84667C12.0314 2.92667 12.7914 3.32667 13.2914 4.04667C11.2114 5.29333 11.7047 8.03333 13.6114 8.8C13.2314 9.8 12.7381 10.7933 11.9181 11.5267L11.9247 11.52ZM8.57805 2.83333C8.47805 1.34667 9.68472 0.12 11.0714 0C11.2647 1.72 9.51139 3 8.57805 2.83333Z" fill="white"/>
</svg>
