<svg width="16" height="16" viewBox="0 0 16 16" fill="none" xmlns="http://www.w3.org/2000/svg">
<path d="M14.4989 8.54039C14.3926 9.77537 13.9359 10.9543 13.1824 11.9385C12.4289 12.9228 11.41 13.6713 10.2455 14.0961C9.081 14.5209 7.81941 14.6043 6.60915 14.3365C5.39889 14.0686 4.29031 13.4607 3.41382 12.5842C2.53733 11.7077 1.9294 10.5991 1.66155 9.38885C1.39371 8.17859 1.47709 6.91701 1.90189 5.75253C2.32669 4.58805 3.07524 3.56912 4.05946 2.81561C5.04368 2.0621 6.22264 1.60536 7.45762 1.49914C7.52328 1.49372 7.58937 1.50129 7.6521 1.52141C7.71484 1.54153 7.773 1.57381 7.82326 1.61641C7.87352 1.65901 7.9149 1.71109 7.94503 1.76968C7.97516 1.82827 7.99346 1.89222 7.99887 1.95789C8.00429 2.02355 7.99672 2.08963 7.9766 2.15237C7.95648 2.2151 7.92419 2.27326 7.88159 2.32352C7.839 2.37378 7.78691 2.41516 7.72832 2.44529C7.66973 2.47542 7.60578 2.49372 7.54012 2.49914C6.49486 2.58894 5.497 2.97543 4.66394 3.61311C3.83088 4.2508 3.19728 5.11315 2.8377 6.09871C2.47812 7.08427 2.40751 8.15204 2.63418 9.17637C2.86085 10.2007 3.37537 11.139 4.1172 11.8808C4.85903 12.6226 5.79731 13.1372 6.82164 13.3638C7.84597 13.5905 8.91373 13.5199 9.89929 13.1603C10.8849 12.8007 11.7472 12.1671 12.3849 11.3341C13.0226 10.501 13.4091 9.50314 13.4989 8.45788C13.5098 8.32528 13.573 8.20245 13.6745 8.11641C13.776 8.03038 13.9075 7.98819 14.0401 7.99914C14.1727 8.01008 14.2956 8.07325 14.3816 8.17475C14.4676 8.27625 14.5098 8.40778 14.4989 8.54039ZM7.49887 4.49914V7.99914C7.49887 8.13174 7.55155 8.25892 7.64532 8.35269C7.73909 8.44646 7.86626 8.49914 7.99887 8.49914H11.4989C11.6315 8.49914 11.7587 8.44646 11.8524 8.35269C11.9462 8.25892 11.9989 8.13174 11.9989 7.99914C11.9989 7.86653 11.9462 7.73935 11.8524 7.64558C11.7587 7.55181 11.6315 7.49914 11.4989 7.49914H8.49887V4.49914C8.49887 4.36653 8.44619 4.23935 8.35243 4.14558C8.25866 4.05181 8.13148 3.99914 7.99887 3.99914C7.86626 3.99914 7.73909 4.05181 7.64532 4.14558C7.55155 4.23935 7.49887 4.36653 7.49887 4.49914ZM9.99887 2.99914C10.1472 2.99914 10.2922 2.95515 10.4156 2.87274C10.5389 2.79033 10.635 2.67319 10.6918 2.53615C10.7485 2.3991 10.7634 2.2483 10.7345 2.10282C10.7055 1.95733 10.6341 1.82369 10.5292 1.71881C10.4243 1.61392 10.2907 1.54249 10.1452 1.51355C9.9997 1.48461 9.84891 1.49946 9.71186 1.55623C9.57482 1.61299 9.45768 1.70912 9.37527 1.83246C9.29286 1.95579 9.24887 2.1008 9.24887 2.24914C9.24887 2.44805 9.32789 2.63881 9.46854 2.77947C9.6092 2.92012 9.79996 2.99914 9.99887 2.99914ZM12.2489 4.49914C12.3972 4.49914 12.5422 4.45515 12.6656 4.37274C12.7889 4.29033 12.885 4.17319 12.9418 4.03615C12.9985 3.8991 13.0134 3.7483 12.9845 3.60282C12.9555 3.45733 12.8841 3.32369 12.7792 3.21881C12.6743 3.11392 12.5407 3.04249 12.3952 3.01355C12.2497 2.98461 12.0989 2.99946 11.9619 3.05623C11.8248 3.11299 11.7077 3.20912 11.6253 3.33246C11.5429 3.45579 11.4989 3.6008 11.4989 3.74914C11.4989 3.94805 11.5779 4.13881 11.7185 4.27947C11.8592 4.42012 12.05 4.49914 12.2489 4.49914ZM13.7489 6.74914C13.8972 6.74914 14.0422 6.70515 14.1656 6.62274C14.2889 6.54033 14.385 6.42319 14.4418 6.28615C14.4985 6.1491 14.5134 5.9983 14.4845 5.85282C14.4555 5.70733 14.3841 5.57369 14.2792 5.46881C14.1743 5.36392 14.0407 5.29249 13.8952 5.26355C13.7497 5.23461 13.5989 5.24946 13.4619 5.30623C13.3248 5.36299 13.2077 5.45912 13.1253 5.58246C13.0429 5.70579 12.9989 5.8508 12.9989 5.99914C12.9989 6.19805 13.0779 6.38881 13.2185 6.52947C13.3592 6.67012 13.55 6.74914 13.7489 6.74914Z" fill="white"/>
</svg>
