<svg width="14" height="14" viewBox="0 0 14 14" fill="none" xmlns="http://www.w3.org/2000/svg">
<path fill-rule="evenodd" clip-rule="evenodd" d="M7.00115 8.17848L11.7153 12.8926C11.8725 13.0444 12.083 13.1284 12.3015 13.1265C12.52 13.1246 12.729 13.037 12.8835 12.8825C13.038 12.728 13.1257 12.519 13.1275 12.3005C13.1294 12.082 13.0455 11.8715 12.8937 11.7143L8.17949 7.00014L12.8937 2.28598C13.0455 2.12881 13.1294 1.91831 13.1275 1.69981C13.1257 1.48131 13.038 1.2723 12.8835 1.1178C12.729 0.963289 12.52 0.875648 12.3015 0.87375C12.083 0.871851 11.8725 0.955846 11.7153 1.10764L7.00115 5.82181L2.28699 1.10764C2.12911 0.959599 1.91983 0.878783 1.70343 0.882297C1.48703 0.885811 1.28048 0.973379 1.1275 1.12647C0.974511 1.27957 0.887088 1.48617 0.883727 1.70258C0.880366 1.91898 0.96133 2.12821 1.10949 2.28598L5.82282 7.00014L1.10865 11.7143C1.02906 11.7912 0.965578 11.8831 0.921904 11.9848C0.87823 12.0865 0.855241 12.1958 0.85428 12.3065C0.853318 12.4171 0.874403 12.5269 0.916303 12.6293C0.958204 12.7317 1.02008 12.8247 1.09833 12.903C1.17657 12.9812 1.26961 13.0431 1.37203 13.085C1.47444 13.1269 1.58417 13.148 1.69482 13.147C1.80547 13.1461 1.91482 13.1231 2.01649 13.0794C2.11816 13.0357 2.21012 12.9722 2.28699 12.8926L7.00115 8.17848Z" fill="#F5F5F5"/>
</svg>
