<svg width="17" height="16" viewBox="0 0 17 16" fill="none" xmlns="http://www.w3.org/2000/svg">
<path d="M15.0357 6.69303H14.4987V6.66536H8.4987V9.33203H12.2664C11.7167 10.8844 10.2397 11.9987 8.4987 11.9987C6.2897 11.9987 4.4987 10.2077 4.4987 7.9987C4.4987 5.7897 6.2897 3.9987 8.4987 3.9987C9.51836 3.9987 10.446 4.38336 11.1524 5.0117L13.038 3.12603C11.8474 2.01636 10.2547 1.33203 8.4987 1.33203C4.81703 1.33203 1.83203 4.31703 1.83203 7.9987C1.83203 11.6804 4.81703 14.6654 8.4987 14.6654C12.1804 14.6654 15.1654 11.6804 15.1654 7.9987C15.1654 7.5517 15.1194 7.11536 15.0357 6.69303Z" fill="white"/>
<path d="M2.60156 4.8957L4.7919 6.50203C5.38456 5.0347 6.8199 3.9987 8.49956 3.9987C9.51923 3.9987 10.4469 4.38336 11.1532 5.0117L13.0389 3.12603C11.8482 2.01636 10.2556 1.33203 8.49956 1.33203C5.9389 1.33203 3.71823 2.7777 2.60156 4.8957Z" fill="#FF3D00"/>
<path d="M8.50141 14.6669C10.2234 14.6669 11.7881 14.0079 12.9711 12.9362L10.9077 11.1902C10.2159 11.7164 9.37056 12.0009 8.50141 12.0002C6.76741 12.0002 5.29507 10.8946 4.74041 9.35156L2.56641 11.0266C3.66974 13.1856 5.91041 14.6669 8.50141 14.6669Z" fill="#4CAF50"/>
<path d="M15.037 6.69564H14.5V6.66797H8.5V9.33464H12.2677C12.0047 10.0734 11.5311 10.719 10.9053 11.1916L10.9063 11.191L12.9697 12.937C12.8237 13.0696 15.1667 11.3346 15.1667 8.0013C15.1667 7.5543 15.1207 7.11797 15.037 6.69564Z" fill="#1976D2"/>
</svg>
