<svg width="446" height="383" viewBox="0 0 446 383" fill="none" xmlns="http://www.w3.org/2000/svg">
<mask id="mask0_1_2322" style="mask-type:alpha" maskUnits="userSpaceOnUse" x="-896" y="-612" width="2173" height="949">
<path d="M272.966 -90.1533C272.966 47.3358 182.061 158.793 69.9246 158.793C-42.2119 158.793 -742.828 -323.435 -742.828 -460.924C-742.828 -598.413 263.821 -409.134 375.958 -409.134C488.094 -409.134 272.966 -227.642 272.966 -90.1533Z" fill="url(#paint0_linear_1_2322)"/>
<path d="M44.3936 87.5079C44.3936 224.997 -46.511 336.454 -158.647 336.454C-270.784 336.454 -895.48 304.406 -895.48 166.917C-895.48 29.428 -849.304 -296.252 -737.167 -296.252C-625.031 -296.252 44.3936 -49.9811 44.3936 87.5079Z" fill="url(#paint1_radial_1_2322)"/>
<path d="M776.053 -105.57C1078.62 167.699 938.851 30.3699 1198.73 23.4513C1239.49 31.3045 1308.7 31.6779 1259.39 -29.655C1197.76 -106.321 1217.62 -160.471 1140.59 -243.999C1063.57 -327.527 1016.66 -412.39 900.365 -545.239C784.073 -678.088 775.127 -568.577 644.024 -578.958C512.92 -589.339 572.716 -572.853 391.827 -380.095C210.938 -187.336 473.489 -378.838 776.053 -105.57Z" fill="#D9D9D9"/>
<path d="M611.779 -151.896C206.874 -104.225 402.265 -118.938 236.301 81.16C203.539 106.663 157.674 158.492 236.301 161.788C334.584 165.907 362.245 216.52 475.83 213.578C589.416 210.635 684.168 231.234 860.725 231.234C1037.28 231.234 960.775 152.371 1054.94 60.5614C1149.1 -31.2485 1097.31 2.8862 1071.42 -260.184C1045.52 -523.255 1016.68 -199.566 611.779 -151.896Z" fill="#D9D9D9" fill-opacity="0.6"/>
</mask>
<g mask="url(#mask0_1_2322)">
<line x1="-411.191" y1="179.486" x2="1000.09" y2="179.486" stroke="white" stroke-opacity="0.13" stroke-width="1.17705"/>
<line x1="-411.191" y1="28.8236" x2="1000.09" y2="28.8236" stroke="white" stroke-opacity="0.13" stroke-width="1.17705"/>
<line x1="-411.191" y1="330.148" x2="1000.09" y2="330.148" stroke="white" stroke-opacity="0.13" stroke-width="1.17705"/>
<line x1="-411.191" y1="104.156" x2="1000.09" y2="104.156" stroke="white" stroke-opacity="0.13" stroke-width="1.17705"/>
<line x1="-411.191" y1="254.818" x2="1000.09" y2="254.818" stroke="white" stroke-opacity="0.13" stroke-width="1.17705"/>
<line x1="276.275" y1="-450.367" x2="276.275" y2="717.039" stroke="white" stroke-opacity="0.13" stroke-width="1.2607"/>
<line x1="437.642" y1="-450.367" x2="437.642" y2="717.039" stroke="white" stroke-opacity="0.13" stroke-width="1.2607"/>
<line x1="114.904" y1="-450.367" x2="114.904" y2="717.039" stroke="white" stroke-opacity="0.13" stroke-width="1.2607"/>
<line x1="356.958" y1="-450.367" x2="356.958" y2="717.039" stroke="white" stroke-opacity="0.13" stroke-width="1.2607"/>
<line x1="34.2163" y1="-450.367" x2="34.2162" y2="717.039" stroke="white" stroke-opacity="0.13" stroke-width="1.2607"/>
<line x1="195.587" y1="-450.367" x2="195.587" y2="717.039" stroke="white" stroke-opacity="0.13" stroke-width="1.2607"/>
</g>
<defs>
<linearGradient id="paint0_linear_1_2322" x1="-257.884" y1="-392.066" x2="166.443" y2="-166.073" gradientUnits="userSpaceOnUse">
<stop stop-color="white"/>
<stop offset="1" stop-color="white" stop-opacity="0"/>
</linearGradient>
<radialGradient id="paint1_radial_1_2322" cx="0" cy="0" r="1" gradientUnits="userSpaceOnUse" gradientTransform="translate(-597.687 93.3514) rotate(-29.3932) scale(725.463 1246.86)">
<stop stop-color="white"/>
<stop offset="1" stop-color="white" stop-opacity="0"/>
</radialGradient>
</defs>
</svg>
